# xmcd CD database file
#
# Track frame offsets:
#	150
#	18948
#	34729
#	47394
#	66606
#	81799
#	100283
#	116246
#	135906
#	155816
#	172685
#	193331
#	216431
#
# Disc length: 3101 seconds
#
# Revision: 1
# Processed by: cddbd v1.4PL0 Copyright (c) Steve Scherf et al.
# Submitted via: CDex 1.50beta9
#
DISCID=b40c1b0d
DTITLE=Bluebirds - High Perfomance
DYEAR=2003
DGENRE=Blues
TTITLE0=It Takes More
TTITLE1=Down The Road
TTITLE2=Come To Papa
TTITLE3=It Doesn´t Matter
TTITLE4=Droptop
TTITLE5=Down Home Girl
TTITLE6=That´s The Way U Wanna It
TTITLE7=I Wanna Love U Baby
TTITLE8=My Heart Is Bleeding
TTITLE9=Cadillac Twist
TTITLE10=Can´t Treat Me This Way
TTITLE11=Three O´ Clock Blues
TTITLE12=Don´t Know Why
EXTD=YEAR: 2003
EXTT0=
EXTT1=
EXTT2=
EXTT3=
EXTT4=
EXTT5=
EXTT6=
EXTT7=
EXTT8=
EXTT9=
EXTT10=
EXTT11=
EXTT12=
PLAYORDER=
